<?xml version="1.0" encoding="UTF-8"?>
<svg viewBox="0 0 542.50616 547.22357" xmlns="http://www.w3.org/2000/svg" xmlns:xlink="http://www.w3.org/1999/xlink">
 <defs>
  <linearGradient id="d">
   <stop offset="0"/>
   <stop stop-opacity="0" offset="1"/>
  </linearGradient>
  <linearGradient id="c">
   <stop offset="0"/>
   <stop stop-color="#5d5d5d" offset=".24795"/>
   <stop stop-color="#9e9e9e" offset=".33869"/>
   <stop stop-color="#424242" offset=".54403"/>
   <stop stop-color="#232323" offset="1"/>
  </linearGradient>
  <linearGradient id="a">
   <stop offset="0"/>
   <stop offset=".4054"/>
   <stop stop-opacity="0" offset=".55242"/>
   <stop stop-opacity=".2328" offset="1"/>
  </linearGradient>
  <linearGradient id="b">
   <stop stop-color="#8a8a8a" offset="0"/>
   <stop stop-color="#3a3a3a" offset="1"/>
  </linearGradient>
  <linearGradient id="o" x1="555.85" x2="557.15" y1="426.96" y2="241.83" gradientUnits="userSpaceOnUse">
   <stop offset="0"/>
   <stop stop-color="#5d5d5d" offset=".439"/>
   <stop stop-color="#9e9e9e" offset=".50403"/>
   <stop stop-color="#424242" offset=".54403"/>
   <stop stop-color="#525252" offset="1"/>
  </linearGradient>
  <linearGradient id="p" x1="524.73" x2="442.93" y1="316.39" y2="294.89" gradientUnits="userSpaceOnUse" xlink:href="#b"/>
  <linearGradient id="n" x1="609.41" x2="608.13" y1="-192.11" y2="-104.72" gradientUnits="userSpaceOnUse" xlink:href="#b"/>
  <linearGradient id="m" x1="543.97" x2="632.81" y1="-104.88" y2="-229.69" gradientUnits="userSpaceOnUse" xlink:href="#a"/>
  <linearGradient id="l" x1="657.58" x2="572.13" y1="348.39" y2="420.51" gradientUnits="userSpaceOnUse" xlink:href="#c"/>
  <linearGradient id="k" x1="606.39" x2="570.39" y1="385.81" y2="346.74" gradientUnits="userSpaceOnUse" xlink:href="#a"/>
  <linearGradient id="j" x1="674.58" x2="589.13" y1="361.39" y2="433.51" gradientUnits="userSpaceOnUse" xlink:href="#c"/>
  <linearGradient id="i" x1="698.55" x2="652.84" y1="423.1" y2="449.27" gradientUnits="userSpaceOnUse" xlink:href="#b"/>
  <linearGradient id="h" x1="673.85" x2="651.85" y1="450.55" y2="417.72" gradientUnits="userSpaceOnUse" xlink:href="#a"/>
  <linearGradient id="q" x1="520.16" x2="458.66" y1="363.13" y2="423.13" gradientUnits="userSpaceOnUse" xlink:href="#d"/>
  <radialGradient id="g" cx="396.75" cy="468.11" r="126.43" fx="403.11" fy="569.23" gradientTransform="matrix(.28537 .23019 -1 1.2397 772 -188.86)" gradientUnits="userSpaceOnUse">
   <stop stop-color="#8a6e27" offset="0"/>
   <stop stop-color="#1b1507" offset="1"/>
  </radialGradient>
  <radialGradient id="f" cx="431.79" cy="322.48" r="54.353" fx="434.43" fy="322.17" gradientTransform="matrix(1.7723 .18587 -.088745 .84621 -312.37 -30.359)" gradientUnits="userSpaceOnUse">
   <stop stop-color="#1d1d1d" offset="0"/>
   <stop stop-color="#686868" offset=".439"/>
   <stop stop-color="#9e9e9e" offset=".50403"/>
   <stop stop-color="#424242" offset=".54403"/>
   <stop stop-color="#616161" offset="1"/>
  </radialGradient>
  <radialGradient id="e" cx="52.91" cy="648.26" r="250.98" gradientTransform="matrix(1.9284 -.49403 .18074 .70552 -103.91 113.24)" gradientUnits="userSpaceOnUse" xlink:href="#d"/>
 </defs>
 <g transform="translate(-40.884 -47.174)">
  <path d="m301.07 472.25c-30.982 0.82081-66.547 0.77873-90.091 5.9758 28.634-0.84591 64.073 2.034 81.104 7.9951 1.3085 2.1829-13.03 6.7781 6.0516 8.8014 14.604 2.7735 30.096 5.5464 8.0702 8.5389-83.161 20.5-168.27 40.701-242.94 62.753-26.179 4.6886-20.268 15.315 15.505 16.787 30.95 2.2163 57.969-2.924 71.857-8.4905 71.937-21.567 142.39-43.371 212.04-65.294 15.17 5.866 48.19-1.3834 63.619 2.4888 25.324 3.269 6.4684 10.2 33.069 13.223 27.007 5.9752 62.77-0.84821 78.997-6.045 22.592-6.008-5.3639-13.106-33.957-14.306-20.773 1.4729-42.29-3.2926-23.183-7.0002-4.1787-5.8012-34.142-8.5784-49.122-13.117-18.505-5.6288-45.322-7.923-74.048-10.082-17.945-1.6066-37.69-2.1919-56.979-2.2302z" fill="url(#e)" fill-rule="evenodd" opacity=".75862"/>
  <g transform="matrix(1.4152 0 0 1.4152 -331.51 -341.21)">
   <path d="m407.58 307.4c44.901-42.073 111.51-2.8579 111.51-2.8579l-45.962 40.305c-14.346-22.948-30.482-44.273-65.543-37.447z" fill="url(#p)" fill-rule="evenodd" stroke="#000" stroke-width="3.7"/>
   <path d="m392.08 308.4c44.901-42.073 108.51 4.6421 108.51 4.6421l-40.962 32.805c-14.346-22.948-32.482-44.273-67.543-37.447z" fill="url(#f)" fill-rule="evenodd" stroke="#000" stroke-width="3.7"/>
   <path d="m489.49 356.21c-81.166 104.71-190.22 217.15-206.33 244.24-22.585 37.951 32.365 64.683 57.154 32.286 50.54-66.051 178.9-254.26 178.9-254.26 2.7378-12.035 1.3892-23.347-29.72-22.266z" fill="url(#g)" fill-rule="evenodd" stroke="#000" stroke-width="6.7803"/>
   <path d="m489.49 356.21c-23.046 26.864-42.643 50.316-60.334 69.967-9.2449 10.269 27.18 42.473 33.341 34.775 30.993-38.721 56.713-82.475 56.713-82.475 2.7378-12.035 1.3892-23.347-29.72-22.266z" fill="url(#q)" fill-rule="evenodd"/>
   <g transform="matrix(.71224 0 0 .71224 126.02 130.44)">
    <path d="m540.34 244.16c-4.1542 0.0869-35.058-9.7441-41.844 1l-41.031 47.531c-6.0362 6.9941-5.652 17.931 0.84375 24.5l76.562 77.438c9.4958 12.069 34.089 0.2129 68.125-6.7812l37.031-42.531c6.0362-6.9941 5.652-17.931-0.84375-24.5l-74.062-73.938c-3.1972-3.2334-20.755-2.803-24.781-2.7188z" fill="url(#o)" stroke="#000" stroke-width="5.651"/>
    <path transform="matrix(.70311,.71108,-.65336,.75705,0,0)" d="m555.06-197.23h108.91c9.2387 0 16.676 7.4377 16.676 16.676v62.804c0 9.2387-7.4376 16.676-16.676 16.676h-108.91c-9.2387 0-16.676-7.4377-16.676-16.676v-62.804c0-9.2387 7.4376-16.676 16.676-16.676z" fill="url(#n)" stroke="url(#m)" stroke-miterlimit="7.8" stroke-width="5.6598"/>
    <path d="m619.24 348.98c-4.9788 0.14197-10.749 1.6217-17.094 4.5-7.787 3.5326-19.627 16.816-21.781 25.031-2.0588 7.8524 0.39133 14.092 4.3363 17.855 3.9087 3.7288 17.641 16.846 20.746 20.645 5.5942 6.844 17.238 7.768 31.73 1.1559 22.537-10.283 18.471-4.9101 21.75-25 1.1693-7.1643 2.4108-13.85-0.68263-17.656-3.79-4.6628-21.189-16.581-23.998-20.369-3.1072-4.1893-8.3249-6.3531-15.007-6.1625z" fill="url(#l)" stroke="url(#k)" stroke-miterlimit="7.8" stroke-width="4.4487"/>
    <g transform="translate(23,15.5)" stroke-miterlimit="7.8" stroke-width="4.4487">
     <path d="m644.24 351.98c-4.9788 0.14197-10.755 1.608-17.094 4.5-22.537 10.283-43.502 34.941-46.781 55.031-1.3076 8.0118 0.39133 14.092 4.3363 17.855 3.9087 3.7288 17.641 16.846 20.746 20.645 5.5942 6.844 17.238 7.768 31.73 1.1559 22.537-10.283 43.471-34.91 46.75-55 1.1693-7.1643 2.4108-13.85-0.68263-17.656-3.79-4.6628-21.189-16.581-23.998-20.369-3.1072-4.1893-8.3249-6.3531-15.007-6.1625z" fill="url(#j)" stroke="#000"/>
     <path transform="matrix(1.0594 -.48337 -.29475 1.806 59.444 -46.713)" d="m712.76 436a38.537 20.153 0 1 1 -77.075 0 38.537 20.153 0 1 1 77.075 0z" fill="url(#i)" stroke="url(#h)"/>
    </g>
   </g>
  </g>
 </g>
</svg>
